:SAMPLES-PER-SECOND 30
:FULLY-SPECIFIED
:DEGREES
1
root  52.7522 38.7477 0.665833 -5.1819 -80.1129 3.64972
RightUpLeg  -14.242 -7.6644 -1.5542
RightLeg  11.7231 1.59764 1.73162
RightFoot  3.02476 0.175206 -1.226
RightToes  -2.9104e-010 0 -3.6325e-017
Spine  5.04152 -1.63359 5.7156
Spine1  1.2977 -1.24077 0.282096
HEad  -13.9268 -12.1278 -0.195463
LeftShoulder1  -0.653023 5.2087 -32.1454
LeftArm  -3.54963 11.583 -39.5928
LeftForeArm  31.0708 -11.962 -7.08037
LeftHand  -0.0590497 6.93016 -1.55113
RightShoulder  -1.21158 -6.66956 31.7427
RightArm  6.65627 -9.49203 39.6384
RightForeArm  19.7022 10.8574 3.67606
RightHand  0.128913 2.34918 1.73798
LeftUpLeg  8.24777 6.54619 1.73594
LeftLeg  24.156 -1.39944 -0.378161
LeftFoot  -10.6146 0.129913 -9.45288
LeftToes  -3.37426e-010 -1.91496e-010 5.23909e-011
2
root  52.1121 38.7154 0.643968 -1.82321 -79.8723 0.352789
RightUpLeg  -13.8944 -7.81248 -1.00005
RightLeg  13.0132 1.40568 1.95488
RightFoot  1.54241 0.18318 -1.53678
RightToes  -2.9104e-010 0 -3.6325e-017
Spine  4.90397 -1.62764 7.05721
Spine1  1.49013 -1.07163 0.275484
HEad  -15.653 -12.4374 -0.530386
LeftShoulder1  -0.569915 4.99086 -32.1808
LeftArm  -5.2459 12.3271 -40.2267
LeftForeArm  33.8609 -10.1102 -7.32963
LeftHand  -0.0898718 7.94527 -1.94251
RightShoulder  -1.2124 -6.68349 31.604
RightArm  7.31975 -9.58006 40.0318
RightForeArm  18.9882 11.9064 3.81922
RightHand  0.138207 3.26253 1.62454
LeftUpLeg  5.82235 6.5822 3.10946
LeftLeg  29.8638 -2.53268 -1.24066
LeftFoot  -8.149 0.375236 -11.6388
LeftToes  -3.37426e-010 -1.91496e-010 5.23909e-011
3
root  51.3554 38.6749 0.644066 1.54161 -79.7887 -3.1408
RightUpLeg  -13.3144 -8.03027 -0.380591
RightLeg  14.5938 1.4282 2.25616
RightFoot  -0.238879 0.210173 -2.17277
RightToes  -2.9104e-010 0 -3.6325e-017
Spine  5.6882 -1.68136 9.03355
Spine1  0.795642 -0.779848 -0.380903
HEad  -17.0003 -13.0667 -0.428983
LeftShoulder1  -0.596536 5.03998 -32.6807
LeftArm  -5.80313 13.5951 -40.1789
LeftForeArm  36.0006 -9.45543 -7.27702
LeftHand  -0.117235 7.44637 -4.02132
RightShoulder  -1.23138 -6.7314 31.6292
RightArm  8.99697 -9.12996 40.0691
RightForeArm  17.8178 13.1915 4.12486
RightHand  0.0990057 3.74211 0.993191
LeftUpLeg  2.48549 6.98261 4.60055
LeftLeg  37.2292 -2.9262 -2.01345
LeftFoot  -3.21759 0.834701 -11.5997
LeftToes  -3.37426e-010 -1.91496e-010 5.23909e-011
4
root  50.6783 38.6072 0.643898 4.53003 -79.7434 -6.33317
RightUpLeg  -12.85 -8.06734 0.289366
RightLeg  16.2749 1.3849 2.28803
RightFoot  -1.91071 0.189471 -2.45323
RightToes  -2.9104e-010 0 -3.6325e-017
Spine  6.22307 -1.66067 10.3709
Spine1  0.592796 -0.514667 -0.564664
HEad  -17.9942 -13.3149 -0.382286
LeftShoulder1  -0.680581 5.24558 -32.9145
LeftArm  -6.55397 14.4808 -40.5457
LeftForeArm  36.2993 -8.94007 -7.12969
LeftHand  -0.0888664 6.75671 -3.92966
RightShoulder  -1.23092 -6.70341 31.9379
RightArm  11.7939 -7.52802 39.6509
RightForeArm  16.5085 14.3298 4.59406
RightHand  0.0557656 3.52695 0.482259
LeftUpLeg  -0.806375 7.28848 5.73971
LeftLeg  43.6791 -2.19306 -1.83487
LeftFoot  1.48564 1.08282 -9.68184
LeftToes  -3.37426e-010 -1.91496e-010 5.23909e-011
5
root  50.0343 38.5848 0.66188 5.61703 -79.6351 -7.76329
RightUpLeg  -12.0151 -8.11618 0.640523
RightLeg  17.5006 1.3034 2.09692
RightFoot  -3.31972 0.165223 -2.6727
RightToes  -2.9104e-010 0 -3.6325e-017
Spine  6.58093 -1.67412 10.6682
Spine1  0.720746 -0.491285 0.0212814
HEad  -18.6219 -12.973 -0.597849
LeftShoulder1  -0.723857 5.33799 -33.3108
LeftArm  -6.32626 15.4197 -40.7818
LeftForeArm  34.6532 -9.24293 -7.14802
LeftHand  -0.0867911 7.1563 -3.06214
RightShoulder  -1.16922 -6.59329 31.3172
RightArm  13.0641 -5.80586 40.1161
RightForeArm  16.1679 15.0186 4.71893
RightHand  0.00899797 3.67643 -0.145934
LeftUpLeg  -3.32588 7.36621 6.38331
LeftLeg  47.7212 -0.873931 -0.621058
LeftFoot  2.53971 0.911206 -7.56812
LeftToes  -3.37426e-010 -1.91496e-010 5.23909e-011
6
root  49.4016 38.6732 0.705146 3.23151 -79.8179 -5.37852
RightUpLeg  -10.9853 -8.25428 0.273355
RightLeg  17.6421 1.73571 1.9436
RightFoot  -4.17702 0.137678 -2.6478
RightToes  -2.9104e-010 0 -3.6325e-017
Spine  6.32139 -1.65524 11.091
Spine1  0.978514 -0.257456 -1.20341
HEad  -19.1924 -13.8512 -0.454679
LeftShoulder1  -0.690731 5.27106 -32.8908
LeftArm  -6.06517 16.0981 -41.1627
LeftForeArm  33.1381 -9.84569 -7.1294
LeftHand  -0.082257 8.04094 -1.57472
RightShoulder  -1.18311 -6.6203 31.4306
RightArm  13.2504 -4.28828 40.4516
RightForeArm  15.6683 16.1471 4.51227
RightHand  -0.00837975 3.27398 -0.34942
LeftUpLeg  -5.67472 7.51267 6.13268
LeftLeg  49.4026 -0.108519 0.287863
LeftFoot  1.20551 0.672657 -6.19735
LeftToes  -3.37426e-010 -1.91496e-010 5.23909e-011
7
root  48.8049 38.7813 0.775627 0.149463 -80.5599 -2.30453
RightUpLeg  -9.94364 -8.4411 -0.302428
RightLeg  17.6346 2.88594 2.02471
RightFoot  -4.78925 0.107169 -2.43813
RightToes  -2.9104e-010 0 -3.6325e-017
Spine  6.52879 -1.29684 11.4429
Spine1  0.479273 0.338556 -2.60576
HEad  -19.2435 -14.7646 -0.365569
LeftShoulder1  -0.547301 4.92562 -32.3483
LeftArm  -6.33626 16.5953 -41.4178
LeftForeArm  33.2545 -10.4371 -6.83477
LeftHand  -0.0863631 7.52715 -2.26714
RightShoulder  -1.21875 -6.70208 31.5747
RightArm  13.2309 -3.60289 40.4291
RightForeArm  14.1327 17.9065 4.23934
RightHand  -0.00871076 3.60767 -0.366352
LeftUpLeg  -7.52033 8.00942 5.73641
LeftLeg  48.9505 0.163974 0.623658
LeftFoot  -0.750181 0.588156 -6.28965
LeftToes  -3.37426e-010 -1.91496e-010 5.23909e-011
8
root  48.2029 38.8848 0.862217 -3.05622 -81.0092 0.968668
RightUpLeg  -8.8425 -8.79659 -1.00523
RightLeg  17.4091 3.97566 2.28567
RightFoot  -5.32899 0.080979 -2.2292
RightToes  -2.9104e-010 0 -3.6325e-017
Spine  6.36437 -1.12573 10.9592
Spine1  0.348357 0.404663 -2.61493
HEad  -19.1121 -14.9633 -0.705872
LeftShoulder1  -0.681961 5.26075 -32.664
LeftArm  -5.59334 16.2028 -41.0177
LeftForeArm  32.4365 -11.081 -6.86118
LeftHand  -0.103909 8.11536 -2.62748
RightShoulder  -1.13666 -6.53651 30.9517
RightArm  13.5793 -3.39113 40.4755
RightForeArm  12.6338 20.9118 4.12096
RightHand  -0.00803959 3.68978 -0.361103
LeftUpLeg  -9.28991 8.06273 5.31971
LeftLeg  47.0393 0.31083 0.782457
LeftFoot  -2.37324 0.499757 -6.19089
LeftToes  -3.37426e-010 -1.91496e-010 5.23909e-011
9
root  47.6463 38.9563 0.988482 -5.67543 -82.117 4.03885
RightUpLeg  -8.34722 -8.75581 -1.44168
RightLeg  17.2009 5.45543 2.39996
RightFoot  -5.82999 0.0507279 -1.86996
RightToes  -2.9104e-010 0 -3.6325e-017
Spine  5.6754 -0.644271 10.7721
Spine1  0.478504 0.790359 -3.01139
HEad  -18.3976 -15.4784 -1.05867
LeftShoulder1  -0.676206 5.24213 -32.7425
LeftArm  -5.07982 15.8946 -40.7729
LeftForeArm  32.2991 -11.727 -6.74328
LeftHand  -0.0601935 6.10158 -3.42419
RightShoulder  -1.1358 -6.53048 30.9877
RightArm  13.8423 -2.94952 39.8443
RightForeArm  12.3657 24.4378 4.5543
RightHand  -0.0591208 3.38853 -1.02613
LeftUpLeg  -11.1269 8.41448 5.00879
LeftLeg  43.9125 -0.168469 0.203841
LeftFoot  -4.03108 0.447645 -6.64233
LeftToes  -3.37426e-010 -1.91496e-010 5.23909e-011
10
root  47.1853 39.0036 1.18391 -6.6674 -82.9812 5.44001
RightUpLeg  -8.11773 -8.69395 -1.7703
RightLeg  17.3263 6.66201 2.57657
RightFoot  -6.22871 0.0119211 -1.21501
RightToes  -2.9104e-010 0 -3.6325e-017
Spine  5.15495 -0.577156 10.7017
Spine1  0.801535 0.66526 -2.83974
HEad  -18.7257 -14.8644 -0.823201
LeftShoulder1  -0.675373 5.22067 -33.1767
LeftArm  -4.59031 15.294 -40.7315
LeftForeArm  30.1777 -12.333 -6.68051
LeftHand  -0.0588204 6.96886 -1.43891
RightShoulder  -1.09669 -6.47506 30.3729
RightArm  13.0151 -2.47225 39.9571
RightForeArm  14.0205 28.0064 5.29088
RightHand  -0.0742621 3.62733 -1.20804
LeftUpLeg  -13.0561 6.8624 4.7308
LeftLeg  40.2153 -0.222675 0.184772
LeftFoot  -4.93922 0.448657 -7.473
LeftToes  -3.37426e-010 -1.91496e-010 5.23909e-011
